<svg xmlns="http://www.w3.org/2000/svg" width="1200" height="675" viewBox="0 0 1200 675"><title>NodeDots</title><rect width="1200" height="675" fill="#1a1030"/><defs><radialGradient id="glow"><stop stop-color="#d5ef79" stop-opacity=".12"/><stop offset="1" stop-color="#d5ef79" stop-opacity="0"/></radialGradient></defs><ellipse cx="1080" cy="101.25" rx="600" ry="675" fill="url(#glow)"/><g transform="translate(60 46) scale(1)" fill="none" stroke="#fbfafd"><g stroke-width="6" stroke-linecap="round" stroke-linejoin="round"><path d="M20 44V20L24.2 24.2"/><path d="M39.8 39.8L44 44V20"/></g><circle cx="32" cy="32" r="4.5" stroke-width="3"/></g><text x="124" y="90" font-family="Arial, Helvetica, sans-serif" font-size="30" font-weight="600" fill="#fbfafd" letter-spacing="-1">NodeDots</text><text x="76" y="160" font-family="Arial, Helvetica, sans-serif" font-size="18" font-weight="500" fill="#b8adc9" letter-spacing="2">FOR GITHUB PULL REQUESTS</text><text x="72" y="253" font-family="Arial, Helvetica, sans-serif" font-size="68" font-weight="600" fill="#fbfafd" letter-spacing="-3">Catch What Your</text><text x="72" y="332" font-family="Arial, Helvetica, sans-serif" font-size="68" font-weight="600" fill="#fbfafd" letter-spacing="-3">Pull Request Missed.</text><text x="76" y="402" font-family="Arial, Helvetica, sans-serif" font-size="23" font-weight="400" fill="#b8adc9" >See what breaks, is missing, or needs a test.</text><g transform="translate(824 208) scale(0.82)" fill="none"><path d="M0 100C85 100 85 0 160 0M0 100C85 100 85 200 160 200M160 0H320M160 200C240 200 240 0 320 0M160 200H320" stroke="#63566e" stroke-width="2"/><circle cx="0" cy="100" r="10" fill="#d5ef79"/><circle cx="160" cy="0" r="10" fill="#d5ef79"/><circle cx="160" cy="200" r="10" fill="#d5ef79"/><circle cx="320" cy="0" r="12" stroke="#ff8a7a" stroke-width="3"/><path d="m310 10 20-20" stroke="#ff8a7a" stroke-width="3"/><circle cx="320" cy="200" r="11" stroke="#e6a23c" stroke-width="3"/></g><path d="M72 575H1128" stroke="#3c2f50"/><text x="76" y="623" font-family="Arial, Helvetica, sans-serif" font-size="19" font-weight="400" fill="#d5ef79" >nodedots.com/waitlist</text><text x="1128" y="623" font-family="Arial, Helvetica, sans-serif" font-size="16" font-weight="400" fill="#b8adc9" text-anchor="end">Early access · Join the waitlist</text></svg>
